<svg width="238" height="101" viewBox="0 0 238 101" fill="none" xmlns="http://www.w3.org/2000/svg">
<path d="M113.261 58.1748V34.9021H129.489V39.4703H118.886V44.243H128.659V48.8225H118.886V53.6066H129.489V58.1748H113.261ZM139.034 38.5043L135.591 33.3793H140.511L142.818 38.5043H139.034ZM154.474 34.9021V58.1748H148.918V34.9021H154.474ZM166.159 58.5044C164.326 58.5044 162.75 58.1294 161.432 57.3794C160.121 56.6218 159.11 55.5687 158.398 54.2203C157.693 52.8642 157.341 51.2922 157.341 49.5043C157.341 47.7089 157.693 46.1369 158.398 44.7884C159.11 43.4324 160.121 42.3793 161.432 41.6293C162.75 40.8718 164.326 40.493 166.159 40.493C167.992 40.493 169.564 40.8718 170.875 41.6293C172.193 42.3793 173.205 43.4324 173.909 44.7884C174.621 46.1369 174.977 47.7089 174.977 49.5043C174.977 51.2922 174.621 52.8642 173.909 54.2203C173.205 55.5687 172.193 56.6218 170.875 57.3794C169.564 58.1294 167.992 58.5044 166.159 58.5044ZM166.193 54.3112C166.86 54.3112 167.424 54.1066 167.886 53.6975C168.348 53.2884 168.701 52.7203 168.943 51.993C169.193 51.2657 169.318 50.4248 169.318 49.4703C169.318 48.5006 169.193 47.6521 168.943 46.9248C168.701 46.1975 168.348 45.6294 167.886 45.2203C167.424 44.8112 166.86 44.6066 166.193 44.6066C165.504 44.6066 164.92 44.8112 164.443 45.2203C163.973 45.6294 163.614 46.1975 163.364 46.9248C163.121 47.6521 163 48.5006 163 49.4703C163 50.4248 163.121 51.2657 163.364 51.993C163.614 52.7203 163.973 53.2884 164.443 53.6975C164.92 54.1066 165.504 54.3112 166.193 54.3112ZM183.381 48.2203V58.1748H177.824V40.7203H183.108V43.9248H183.301C183.688 42.8566 184.347 42.0195 185.278 41.4134C186.21 40.7998 187.32 40.493 188.608 40.493C189.835 40.493 190.9 40.7695 191.801 41.3225C192.71 41.868 193.415 42.6331 193.915 43.618C194.422 44.5953 194.672 45.7392 194.665 47.0498V58.1748H189.108V48.1407C189.116 47.171 188.869 46.4134 188.369 45.868C187.877 45.3225 187.191 45.0498 186.312 45.0498C185.729 45.0498 185.214 45.1786 184.767 45.4362C184.328 45.6862 183.987 46.046 183.744 46.5157C183.509 46.9854 183.388 47.5536 183.381 48.2203ZM203.662 34.9021V58.1748H198.105V34.9021H203.662ZM212.119 58.4703C211.006 58.4703 210.017 58.2847 209.153 57.9134C208.297 57.5347 207.619 56.9665 207.119 56.2089C206.627 55.4437 206.381 54.4854 206.381 53.3339C206.381 52.3642 206.551 51.546 206.892 50.8793C207.233 50.2127 207.703 49.671 208.301 49.2543C208.9 48.8377 209.589 48.5233 210.369 48.3112C211.15 48.0915 211.983 47.9437 212.869 47.868C213.862 47.7771 214.661 47.6824 215.267 47.5839C215.873 47.4778 216.313 47.3301 216.585 47.1407C216.866 46.9437 217.006 46.6672 217.006 46.3112V46.2543C217.006 45.671 216.805 45.2203 216.403 44.9021C216.002 44.5839 215.46 44.4248 214.778 44.4248C214.044 44.4248 213.453 44.5839 213.006 44.9021C212.559 45.2203 212.275 45.6597 212.153 46.2203L207.028 46.0384C207.18 44.9778 207.57 44.0309 208.199 43.1975C208.835 42.3566 209.706 41.6975 210.812 41.2203C211.926 40.7354 213.263 40.493 214.824 40.493C215.938 40.493 216.964 40.6256 217.903 40.8907C218.843 41.1483 219.661 41.5271 220.358 42.0271C221.055 42.5195 221.593 43.1256 221.972 43.8453C222.358 44.565 222.551 45.3869 222.551 46.3112V58.1748H217.324V55.743H217.188C216.877 56.3339 216.479 56.8339 215.994 57.243C215.517 57.6521 214.953 57.9589 214.301 58.1634C213.657 58.368 212.93 58.4703 212.119 58.4703ZM213.835 54.8339C214.434 54.8339 214.972 54.7127 215.449 54.4703C215.934 54.2278 216.32 53.8945 216.608 53.4703C216.896 53.0384 217.04 52.5384 217.04 51.9703V50.3112C216.881 50.3945 216.688 50.4703 216.46 50.5384C216.241 50.6066 215.998 50.671 215.733 50.7316C215.468 50.7922 215.195 50.8453 214.915 50.8907C214.634 50.9362 214.366 50.9778 214.108 51.0157C213.585 51.099 213.138 51.2278 212.767 51.4021C212.403 51.5763 212.123 51.8036 211.926 52.0839C211.737 52.3566 211.642 52.6824 211.642 53.0612C211.642 53.6369 211.847 54.0763 212.256 54.3793C212.672 54.6824 213.199 54.8339 213.835 54.8339ZM225.949 58.1748V40.7203H231.347V43.9021H231.528C231.847 42.7506 232.366 41.8945 233.085 41.3339C233.805 40.7657 234.642 40.4816 235.597 40.4816C235.854 40.4816 236.119 40.5006 236.392 40.5384C236.665 40.5687 236.919 40.618 237.153 40.6862V45.5157C236.888 45.4248 236.54 45.3528 236.108 45.2998C235.684 45.2468 235.305 45.2203 234.972 45.2203C234.313 45.2203 233.718 45.368 233.188 45.6634C232.665 45.9513 232.252 46.3566 231.949 46.8793C231.653 47.3945 231.506 48.0006 231.506 48.6975V58.1748H225.949Z" fill="black"/>
<g clip-path="url(#clip0_1_333)">
<g clip-path="url(#clip1_1_333)">
<path d="M100.5 50.0781C100.5 22.4639 78.1142 0.078125 50.5 0.078125C22.8858 0.078125 0.5 22.4639 0.5 50.0781C0.5 77.6924 22.8858 100.078 50.5 100.078C78.1142 100.078 100.5 77.6924 100.5 50.0781Z" fill="#26304D"/>
<path d="M68.6831 61.7477C75.0979 61.7477 80.2981 56.4925 80.2981 50.0099C80.2981 43.5272 75.0979 38.272 68.6831 38.272C62.2684 38.272 57.0682 43.5272 57.0682 50.0099C57.0682 56.4925 62.2684 61.7477 68.6831 61.7477Z" fill="white"/>
<path d="M53.4643 55.2718C54.1279 55.2718 54.6659 54.7281 54.6659 54.0575C54.6659 53.3869 54.1279 52.8433 53.4643 52.8433C52.8007 52.8433 52.2628 53.3869 52.2628 54.0575C52.2628 54.7281 52.8007 55.2718 53.4643 55.2718Z" fill="#0C2F75"/>
<path fill-rule="evenodd" clip-rule="evenodd" d="M50.8633 45.011H48.1173V50.9444L43.9681 44.9438H41.4282V55.2718H44.1809L44.1477 49.6811L48.33 55.3524H50.8633V45.011ZM27.0115 50.0371L30.9945 55.2716H27.5369L24.5713 51.0921H24.4649V55.2716H21.7121V45.0108H24.4649V49.2846H24.5381L27.3374 45.0108H30.5157L27.0115 50.0371ZM35.729 55.527C33.0826 55.527 31.2607 53.7732 31.2607 51.2399V45.0108H34.0135V51.2467C34.0135 52.2882 34.725 53.0072 35.729 53.0072C36.7397 53.0072 37.4511 52.2882 37.4511 51.2533V45.0108H40.2039V51.2399C40.2039 53.7732 38.382 55.527 35.729 55.527Z" fill="white"/>
<path fill-rule="evenodd" clip-rule="evenodd" d="M60.0551 51.2403C60.0551 53.7736 61.8769 55.5274 64.5233 55.5274C67.1764 55.5274 68.9982 53.7736 68.9982 51.2403V45.0112H66.2455V51.2538C66.2455 52.2886 65.5339 53.0076 64.5233 53.0076C63.5193 53.0076 62.8078 52.2886 62.8078 51.2471V45.0112H60.0551V51.2403ZM73.8463 47.4841L69.6107 55.272H78.0618V52.7925H74.1455L78.361 45.0112H70.4086V47.4841H73.8463Z" fill="#26304D"/>
</g>
</g>
<defs>
<clipPath id="clip0_1_333">
<path d="M0.5 50.0781C0.5 22.4639 22.8858 0.078125 50.5 0.078125C78.1142 0.078125 100.5 22.4639 100.5 50.0781C100.5 77.6924 78.1142 100.078 50.5 100.078C22.8858 100.078 0.5 77.6924 0.5 50.0781Z" fill="white"/>
</clipPath>
<clipPath id="clip1_1_333">
<rect width="100" height="100" fill="white" transform="translate(0.5 0.078125)"/>
</clipPath>
</defs>
</svg>
