<svg width="93" height="38" viewBox="0 0 93 38" fill="none" xmlns="http://www.w3.org/2000/svg">
<g clip-path="url(#clip0_1_1378)">
<path d="M74.2605 37.3652C84.3339 37.3652 92.5 29.1126 92.5 18.9326C92.5 8.75256 84.3339 0.5 74.2605 0.5C64.1871 0.5 56.021 8.75256 56.021 18.9326C56.021 29.1126 64.1871 37.3652 74.2605 37.3652Z" fill="#0C2F75"/>
<path d="M50.3619 27.195C51.404 27.195 52.2487 26.3413 52.2487 25.2882C52.2487 24.2351 51.404 23.3814 50.3619 23.3814C49.3198 23.3814 48.475 24.2351 48.475 25.2882C48.475 26.3413 49.3198 27.195 50.3619 27.195Z" fill="#0C2F75"/>
<path fill-rule="evenodd" clip-rule="evenodd" d="M46.2775 11.0826H41.9652V20.4L35.4496 10.9771H31.461V27.1956H35.7838L35.7316 18.4162L42.2993 27.3222H46.2775V11.0826ZM8.82191 18.9753L15.0764 27.1953H9.64679L4.98986 20.632H4.8228V27.1953H0.5V11.0824H4.8228V17.7935H4.93765L9.33354 11.0824H14.3246L8.82191 18.9753ZM22.5112 27.5963C18.3554 27.5963 15.4945 24.8422 15.4945 20.8641V11.0824H19.8173V20.8747C19.8173 22.5102 20.9345 23.6393 22.5112 23.6393C24.0983 23.6393 25.2155 22.5102 25.2155 20.8852V11.0824H29.5383V20.8641C29.5383 24.8422 26.6774 27.5963 22.5112 27.5963Z" fill="#0C2F75"/>
<path fill-rule="evenodd" clip-rule="evenodd" d="M60.7119 20.8643C60.7119 24.8424 63.5729 27.5965 67.7286 27.5965C71.8948 27.5965 74.7558 24.8424 74.7558 20.8643V11.0825H70.433V20.8854C70.433 22.5104 69.3157 23.6395 67.7286 23.6395C66.152 23.6395 65.0347 22.5104 65.0347 20.8748V11.0825H60.7119V20.8643ZM82.3684 14.9657L75.7171 27.1955H88.9883V23.3018H82.8383L89.4582 11.0825H76.9701V14.9657H82.3684Z" fill="white"/>
</g>
<defs>
<clipPath id="clip0_1_1378">
<rect width="92" height="37" fill="white" transform="translate(0.5 0.5)"/>
</clipPath>
</defs>
</svg>
