<svg width="174" height="39" viewBox="0 0 174 39" fill="none" xmlns="http://www.w3.org/2000/svg">
<g clip-path="url(#clip0_1_329)">
<path d="M47.0668 23.5781V13.3963H48.9112V17.7067H53.6293V13.3963H55.4787V23.5781H53.6293V19.2528H48.9112V23.5781H47.0668ZM59.6026 23.7322C59.1187 23.7322 58.6829 23.6461 58.2951 23.4737C57.9106 23.2981 57.6057 23.0395 57.3803 22.6982C57.1583 22.3568 57.0472 21.9358 57.0472 21.4354C57.0472 21.0045 57.1268 20.6482 57.2859 20.3665C57.445 20.0848 57.6621 19.8594 57.9371 19.6903C58.2122 19.5213 58.5221 19.3937 58.8668 19.3075C59.2148 19.218 59.5745 19.1534 59.9457 19.1136C60.3931 19.0672 60.756 19.0258 61.0344 18.9893C61.3129 18.9496 61.515 18.8899 61.641 18.8104C61.7702 18.7275 61.8349 18.5999 61.8349 18.4276V18.3977C61.8349 18.0232 61.7238 17.7332 61.5018 17.5277C61.2797 17.3222 60.9599 17.2195 60.5423 17.2195C60.1014 17.2195 59.7518 17.3156 59.4933 17.5078C59.238 17.7 59.0657 17.9271 58.9762 18.1889L57.2958 17.9503C57.4284 17.4863 57.6471 17.0985 57.9521 16.7869C58.257 16.4721 58.6299 16.2367 59.0707 16.081C59.5115 15.9219 59.9987 15.8423 60.5323 15.8423C60.9002 15.8423 61.2665 15.8854 61.631 15.9716C61.9956 16.0578 62.3287 16.2003 62.6303 16.3991C62.9319 16.5947 63.1739 16.8615 63.3562 17.1996C63.5418 17.5376 63.6346 17.9602 63.6346 18.4673V23.5781H61.9045V22.5291H61.8448C61.7354 22.7412 61.5813 22.9401 61.3825 23.1257C61.1869 23.308 60.94 23.4555 60.6417 23.5682C60.3467 23.6776 60.0004 23.7322 59.6026 23.7322ZM60.07 22.4098C60.4312 22.4098 60.7444 22.3385 61.0096 22.196C61.2747 22.0502 61.4786 21.858 61.6211 21.6193C61.7669 21.3807 61.8398 21.1205 61.8398 20.8388V19.9389C61.7835 19.9853 61.6874 20.0284 61.5515 20.0682C61.4189 20.108 61.2698 20.1428 61.104 20.1726C60.9383 20.2024 60.7743 20.2289 60.6119 20.2521C60.4495 20.2753 60.3086 20.2952 60.1893 20.3118C59.9208 20.3482 59.6805 20.4079 59.4684 20.4908C59.2563 20.5736 59.0889 20.6896 58.9663 20.8388C58.8436 20.9846 58.7823 21.1735 58.7823 21.4055C58.7823 21.737 58.9033 21.9872 59.1452 22.1562C59.3872 22.3253 59.6954 22.4098 60.07 22.4098ZM65.4442 23.5781V15.9418H67.1644V17.2393H67.2539C67.413 16.8018 67.6765 16.4605 68.0444 16.2152C68.4123 15.9666 68.8514 15.8423 69.3619 15.8423C69.8789 15.8423 70.3147 15.9683 70.6694 16.2202C71.0273 16.4687 71.2792 16.8085 71.4251 17.2393H71.5046C71.6737 16.8151 71.9587 16.477 72.3597 16.2251C72.7641 15.9699 73.243 15.8423 73.7965 15.8423C74.4992 15.8423 75.0726 16.0644 75.5167 16.5085C75.9608 16.9527 76.1829 17.6006 76.1829 18.4524V23.5781H74.3782V18.7308C74.3782 18.2569 74.2522 17.9105 74.0004 17.6918C73.7485 17.4697 73.4402 17.3587 73.0756 17.3587C72.6415 17.3587 72.3017 17.4946 72.0565 17.7663C71.8145 18.0348 71.6935 18.3845 71.6935 18.8153V23.5781H69.9286V18.6562C69.9286 18.2618 69.8093 17.947 69.5707 17.7116C69.3353 17.4763 69.0271 17.3587 68.646 17.3587C68.3874 17.3587 68.1521 17.425 67.94 17.5575C67.7279 17.6868 67.5588 17.8707 67.4329 18.1094C67.3069 18.3447 67.244 18.6198 67.244 18.9347V23.5781H65.4442ZM79.6493 21.1818L79.6444 19.0092H79.9327L82.677 15.9418H84.78L81.4043 19.7003H81.0314L79.6493 21.1818ZM78.0087 23.5781V13.3963H79.8084V23.5781H78.0087ZM82.8013 23.5781L80.3155 20.103L81.5286 18.8352L84.954 23.5781H82.8013ZM88.9959 23.7273C88.2502 23.7273 87.6039 23.5632 87.057 23.2351C86.5101 22.907 86.0859 22.4479 85.7843 21.858C85.486 21.268 85.3368 20.5786 85.3368 19.7898C85.3368 19.0009 85.486 18.3099 85.7843 17.7166C86.0859 17.1233 86.5101 16.6626 87.057 16.3345C87.6039 16.0064 88.2502 15.8423 88.9959 15.8423C89.7417 15.8423 90.388 16.0064 90.9348 16.3345C91.4817 16.6626 91.9043 17.1233 92.2026 17.7166C92.5042 18.3099 92.655 19.0009 92.655 19.7898C92.655 20.5786 92.5042 21.268 92.2026 21.858C91.9043 22.4479 91.4817 22.907 90.9348 23.2351C90.388 23.5632 89.7417 23.7273 88.9959 23.7273ZM89.0059 22.2855C89.4102 22.2855 89.7483 22.1745 90.0201 21.9524C90.2918 21.727 90.494 21.4254 90.6266 21.0476C90.7625 20.6697 90.8304 20.2488 90.8304 19.7848C90.8304 19.3175 90.7625 18.8949 90.6266 18.517C90.494 18.1359 90.2918 17.8326 90.0201 17.6072C89.7483 17.3819 89.4102 17.2692 89.0059 17.2692C88.5916 17.2692 88.2469 17.3819 87.9718 17.6072C87.7 17.8326 87.4962 18.1359 87.3603 18.517C87.2277 18.8949 87.1614 19.3175 87.1614 19.7848C87.1614 20.2488 87.2277 20.6697 87.3603 21.0476C87.4962 21.4254 87.7 21.727 87.9718 21.9524C88.2469 22.1745 88.5916 22.2855 89.0059 22.2855ZM94.1825 23.5781V15.9418H95.9276V17.2145H96.0071C96.1463 16.7737 96.3849 16.4339 96.723 16.1953C97.0644 15.9534 97.4538 15.8324 97.8913 15.8324C97.9908 15.8324 98.1018 15.8374 98.2244 15.8473C98.3504 15.8539 98.4548 15.8655 98.5376 15.8821V17.5376C98.4614 17.5111 98.3404 17.4879 98.1747 17.468C98.0123 17.4448 97.8549 17.4332 97.7024 17.4332C97.3743 17.4332 97.0793 17.5045 96.8175 17.647C96.5589 17.7862 96.3551 17.9801 96.206 18.2287C96.0568 18.4773 95.9822 18.764 95.9822 19.0888V23.5781H94.1825ZM101.533 13.3963V23.5781H99.7333V13.3963H101.533ZM103.384 23.5781V15.9418H105.183V23.5781H103.384ZM104.289 14.858C104.003 14.858 103.758 14.7635 103.553 14.5746C103.347 14.3823 103.244 14.152 103.244 13.8835C103.244 13.6117 103.347 13.3814 103.553 13.1925C103.758 13.0002 104.003 12.9041 104.289 12.9041C104.577 12.9041 104.822 13.0002 105.024 13.1925C105.23 13.3814 105.333 13.6117 105.333 13.8835C105.333 14.152 105.23 14.3823 105.024 14.5746C104.822 14.7635 104.577 14.858 104.289 14.858ZM108.675 21.1818L108.67 19.0092H108.958L111.702 15.9418H113.805L110.43 19.7003H110.057L108.675 21.1818ZM107.034 23.5781V13.3963H108.834V23.5781H107.034ZM111.827 23.5781L109.341 20.103L110.554 18.8352L113.979 23.5781H111.827ZM123.573 26.4418V22.375H123.499C123.406 22.5606 123.272 22.7578 123.096 22.9666C122.92 23.1721 122.688 23.3478 122.4 23.4936C122.112 23.6394 121.749 23.7124 121.311 23.7124C120.711 23.7124 120.174 23.5582 119.7 23.25C119.227 22.9418 118.852 22.4943 118.577 21.9077C118.302 21.321 118.164 20.6084 118.164 19.7699C118.164 18.9214 118.303 18.2055 118.582 17.6222C118.864 17.0355 119.243 16.593 119.72 16.2947C120.198 15.9931 120.73 15.8423 121.316 15.8423C121.764 15.8423 122.132 15.9186 122.42 16.071C122.708 16.2202 122.937 16.4008 123.106 16.6129C123.275 16.8217 123.406 17.0189 123.499 17.2045H123.608V15.9418H125.378V26.4418H123.573ZM121.813 22.2358C122.195 22.2358 122.519 22.133 122.788 21.9276C123.056 21.7187 123.26 21.4287 123.399 21.0575C123.539 20.6863 123.608 20.2538 123.608 19.7599C123.608 19.2661 123.539 18.8369 123.399 18.4723C123.263 18.1077 123.061 17.8243 122.793 17.6222C122.528 17.42 122.201 17.3189 121.813 17.3189C121.412 17.3189 121.078 17.4233 120.809 17.6321C120.541 17.8409 120.338 18.1293 120.203 18.4972C120.067 18.8651 119.999 19.286 119.999 19.7599C119.999 20.2372 120.067 20.6631 120.203 21.0376C120.342 21.4089 120.546 21.7022 120.814 21.9176C121.086 22.1297 121.419 22.2358 121.813 22.2358ZM127.227 23.5781V15.9418H129.027V23.5781H127.227ZM128.132 14.858C127.847 14.858 127.602 14.7635 127.396 14.5746C127.191 14.3823 127.088 14.152 127.088 13.8835C127.088 13.6117 127.191 13.3814 127.396 13.1925C127.602 13.0002 127.847 12.9041 128.132 12.9041C128.421 12.9041 128.666 13.0002 128.868 13.1925C129.074 13.3814 129.176 13.6117 129.176 13.8835C129.176 14.152 129.074 14.3823 128.868 14.5746C128.666 14.7635 128.421 14.858 128.132 14.858ZM132.678 13.3963V23.5781H130.878V13.3963H132.678ZM134.528 23.5781V15.9418H136.328V23.5781H134.528ZM135.433 14.858C135.148 14.858 134.903 14.7635 134.697 14.5746C134.492 14.3823 134.389 14.152 134.389 13.8835C134.389 13.6117 134.492 13.3814 134.697 13.1925C134.903 13.0002 135.148 12.9041 135.433 12.9041C135.721 12.9041 135.967 13.0002 136.169 13.1925C136.374 13.3814 136.477 13.6117 136.477 13.8835C136.477 14.152 136.374 14.3823 136.169 14.5746C135.967 14.7635 135.721 14.858 135.433 14.858ZM144.214 17.9602L142.574 18.1392C142.527 17.9735 142.446 17.8177 142.33 17.6719C142.217 17.526 142.065 17.4084 141.873 17.3189C141.68 17.2294 141.445 17.1847 141.167 17.1847C140.792 17.1847 140.477 17.2659 140.222 17.4283C139.97 17.5907 139.846 17.8011 139.849 18.0597C139.846 18.2817 139.927 18.4624 140.093 18.6016C140.262 18.7408 140.54 18.8551 140.928 18.9446L142.23 19.223C142.953 19.3788 143.49 19.6257 143.841 19.9638C144.196 20.3018 144.375 20.7443 144.378 21.2912C144.375 21.7718 144.234 22.196 143.956 22.5639C143.681 22.9285 143.298 23.2135 142.807 23.419C142.317 23.6245 141.753 23.7273 141.117 23.7273C140.182 23.7273 139.43 23.5317 138.86 23.1406C138.29 22.7462 137.95 22.1977 137.841 21.495L139.596 21.326C139.675 21.6707 139.844 21.9309 140.103 22.1065C140.361 22.2822 140.698 22.37 141.112 22.37C141.539 22.37 141.882 22.2822 142.141 22.1065C142.403 21.9309 142.534 21.7138 142.534 21.4553C142.534 21.2365 142.449 21.0559 142.28 20.9134C142.114 20.7708 141.856 20.6615 141.505 20.5852L140.202 20.3118C139.47 20.1593 138.928 19.9025 138.576 19.5412C138.225 19.1766 138.051 18.7159 138.054 18.1591C138.051 17.6884 138.179 17.2808 138.437 16.9361C138.699 16.5881 139.062 16.3196 139.526 16.1307C139.993 15.9384 140.532 15.8423 141.142 15.8423C142.037 15.8423 142.741 16.0329 143.255 16.4141C143.772 16.7952 144.092 17.3106 144.214 17.9602ZM147.662 19.1037V23.5781H145.862V13.3963H147.622V17.2393H147.712C147.891 16.8085 148.167 16.4687 148.542 16.2202C148.92 15.9683 149.4 15.8423 149.984 15.8423C150.514 15.8423 150.976 15.9534 151.371 16.1754C151.765 16.3975 152.07 16.7223 152.286 17.1499C152.504 17.5774 152.614 18.0994 152.614 18.7159V23.5781H150.814V18.9943C150.814 18.4806 150.681 18.0812 150.416 17.7962C150.154 17.5078 149.786 17.3636 149.312 17.3636C148.994 17.3636 148.709 17.4332 148.457 17.5724C148.209 17.7083 148.013 17.9055 147.871 18.1641C147.732 18.4226 147.662 18.7358 147.662 19.1037Z" fill="black"/>
<path d="M0.0625 19.0781C0.0625 9.137 8.12138 1.07812 18.0625 1.07812C28.0036 1.07812 36.0625 9.137 36.0625 19.0781C36.0625 29.0193 28.0036 37.0781 18.0625 37.0781C8.12138 37.0781 0.0625 29.0193 0.0625 19.0781Z" fill="#0C2F75"/>
</g>
<defs>
<clipPath id="clip0_1_329">
<rect width="173.44" height="38" fill="white" transform="translate(0.0625 0.078125)"/>
</clipPath>
</defs>
</svg>
